<?xml version="1.0" encoding="UTF-8"?>
<svg id="_레이어_1" data-name="레이어_1" xmlns="http://www.w3.org/2000/svg" version="1.1" viewBox="0 0 1360 345.32">
  <!-- Generator: Adobe Illustrator 30.2.1, SVG Export Plug-In . SVG Version: 2.1.1 Build 1)  -->
  <defs>
    <style>
      .st0 {
        fill: #fff;
      }
    </style>
  </defs>
  <path class="st0" d="M28.11,302C10.52,284.06,1.28,258.89.36,226.48h36.9c.91,26.63,6.42,45.87,16.54,57.73,10.11,11.87,25.01,17.8,44.69,17.8,16.22,0,28.15-4.48,35.81-13.46,7.65-8.96,11.48-22.28,11.48-39.93,0-9.55-1.37-17.8-4.1-24.74-2.73-6.95-8.06-13.31-15.99-19.1-7.93-5.79-19.54-10.99-34.85-15.63-24.05-7.52-44.33-18.23-60.82-32.12-16.49-13.89-24.74-34.29-24.74-61.2,0-52.66,30.16-79,90.47-79,29.52,0,51.8,7.75,66.83,23.22,15.03,15.48,23.28,36.1,24.74,61.85h-36.35c-2.55-21.12-8.57-36.09-18.04-44.92-9.48-8.82-22.41-13.24-38.81-13.24-14.4,0-25.1,3.91-32.12,11.72-7.02,7.81-10.52,17.8-10.52,29.95,0,6.66,1.23,12.59,3.69,17.8s7.47,10.35,15.03,15.41c7.56,5.07,18.63,10.2,33.21,15.41,20.59,7.24,36.9,14.47,48.93,21.7,12.03,7.24,21.68,17.58,28.97,31.03,7.29,13.46,10.93,31.33,10.93,53.6,0,18.52-3.87,34.44-11.62,47.74-7.75,13.31-18.63,23.44-32.66,30.38-14.03,6.94-30.34,10.42-48.93,10.42-29.7,0-53.35-8.97-70.93-26.91Z"/>
  <path class="st0" d="M228.6,20.74h46.47v303.83h-46.47V20.74Z"/>
  <path class="st0" d="M315.79,20.74h46.47v127.61h101.41V20.74h46.47v303.83h-46.47v-149.31h-101.41v149.31h-46.47V20.74Z"/>
  <path class="st0" d="M602.78,190.02l-80.63-169.28h50.02l62.05,128.04,66.42-128.04h32.53l-83.91,163.2v140.63h-46.47v-134.55Z"/>
  <path class="st0" d="M849.33,247.75h-97.31l-23.51,76.83h-32.25L795.75,16.4h29.79l93.75,308.17h-47.29l-22.69-76.83ZM841.4,220.84l-39.91-135.85-41.27,135.85h81.18Z"/>
  <path class="st0" d="M934.33,20.74h45.65l97.85,205.3V20.74h43.73v303.83h-31.16l-112.34-238.72v238.72h-43.73V20.74Z"/>
  <path class="st0" d="M1200.97,310.03c-17.04-12.59-30.16-30.6-39.36-54.04-9.2-23.44-13.8-51.07-13.8-82.9s4.6-59.46,13.8-82.9c9.2-23.44,22.37-41.52,39.5-54.26,17.13-12.73,37.35-19.1,60.68-19.1,18.22,0,34.35,4.2,48.38,12.59,14.03,8.4,25.33,20.33,33.89,35.81,8.56,15.48,13.76,33.93,15.58,55.34h-36.35c-3.1-24.88-9.89-43.91-20.36-57.08-10.48-13.16-23.92-19.75-40.32-19.75-21.32,0-37.95,11.28-49.88,33.85-11.94,22.57-17.9,54.26-17.9,95.06s5.88,72.2,17.63,95.06c11.75,22.86,28.02,34.29,48.79,34.29,9.11,0,17.31-1.52,24.6-4.56,7.29-3.04,15.12-8.31,23.51-15.84v-92.89h-65.6v-25.17h111.79v118.49c-9.66,14.47-23.01,25.9-40.04,34.29-17.04,8.39-35.22,12.59-54.53,12.59-22.96,0-42.96-6.29-60-18.88Z"/>
</svg>