<?xml version="1.0" encoding="UTF-8"?>
<svg id="_레이어_1" data-name="레이어_1" xmlns="http://www.w3.org/2000/svg" version="1.1" viewBox="0 0 95 94">
  <!-- Generator: Adobe Illustrator 30.2.1, SVG Export Plug-In . SVG Version: 2.1.1 Build 1)  -->
  <defs>
    <style>
      .st0 {
        fill: #fff;
      }
    </style>
  </defs>
  <path class="st0" d="M17.72,12.49l2.12-1.59c.76-.57,1.43-.89,2.02-.96.59-.07,1.1.18,1.52.75.42.56.51,1.11.29,1.66-.22.55-.72,1.11-1.49,1.68l-.89.67,1.43,1.92-1.22.92-3.78-5.04ZM21.84,13.57c.38-.29.61-.58.68-.88.07-.3-.05-.66-.37-1.08-.31-.42-.62-.64-.93-.66-.31-.02-.66.11-1.05.4l-.9.67,1.67,2.23.9-.67Z"/>
  <path class="st0" d="M28.11,12.64c-.6,0-1.14-.15-1.62-.46-.48-.31-.86-.78-1.16-1.39-.29-.6-.42-1.19-.36-1.75.05-.56.27-1.07.65-1.54.38-.47.91-.87,1.58-1.2.67-.33,1.3-.49,1.91-.5.6,0,1.14.14,1.61.44.47.3.85.76,1.15,1.36.3.61.43,1.21.38,1.77s-.26,1.09-.63,1.55c-.38.47-.9.87-1.57,1.2-.67.33-1.31.5-1.92.5ZM30.87,10.34c.12-.57-.02-1.25-.41-2.04-.38-.78-.83-1.29-1.34-1.54s-1.08-.23-1.69.07c-.61.3-.97.73-1.1,1.29-.12.56,0,1.23.38,2.01.39.79.84,1.32,1.36,1.58.52.26,1.09.24,1.7-.06.61-.3.97-.73,1.09-1.3Z"/>
  <path class="st0" d="M39.96,8.18c.16.19.29.26.38.23l.03.12-1.44.38c-.14-.09-.28-.21-.42-.36-.14-.16-.29-.36-.46-.6-.25-.34-.46-.61-.65-.79-.18-.18-.39-.29-.61-.31l-.13.03-1.29.34.65,2.46-1.47.39-1.62-6.09,2.76-.73c.91-.24,1.65-.29,2.22-.15.57.14.94.54,1.11,1.19.24.89-.09,1.57-.99,2.06.23.07.44.18.64.35.2.16.41.38.63.67.27.35.48.62.65.81ZM35.22,6.69l1.3-.34c.44-.12.76-.3.95-.54s.22-.62.09-1.11c-.13-.49-.34-.79-.63-.9-.29-.11-.65-.11-1.09,0l-1.3.34.68,2.55Z"/>
  <path class="st0" d="M42.9,2.52l-2.6.22-.05-.56,6.72-.56.05.56-2.6.22.48,5.72-1.52.13-.48-5.72Z"/>
  <path class="st0" d="M49,1.7l5.65.49-.05.55-4.12-.36-.18,2.08,3.53.31-.05.56-3.53-.31-.27,3.08-1.52-.13.55-6.28Z"/>
  <path class="st0" d="M56.56,8.73c-.46-.4-.76-.87-.91-1.42-.15-.55-.13-1.15.06-1.81.18-.65.48-1.16.89-1.55.41-.38.91-.62,1.51-.72.59-.1,1.25-.05,1.97.16.72.2,1.3.5,1.76.89.46.39.76.86.91,1.4.15.54.13,1.13-.05,1.78-.19.66-.48,1.18-.9,1.58-.41.39-.91.64-1.51.74-.59.1-1.25.05-1.97-.15-.72-.2-1.31-.5-1.77-.9ZM60.16,8.84c.47-.35.82-.95,1.06-1.8.23-.83.24-1.51.02-2.04-.22-.53-.65-.89-1.31-1.07-.65-.18-1.21-.11-1.68.23s-.82.93-1.05,1.76c-.24.85-.25,1.54-.04,2.08.22.54.65.9,1.31,1.09.65.18,1.21.1,1.68-.25Z"/>
  <path class="st0" d="M65.87,5.47l1.37.68-2.55,5.14,3.47,1.72-.25.5-4.84-2.4,2.8-5.64Z"/>
  <path class="st0" d="M72.58,9.11l1.27.85-3.5,5.24-1.27-.85,3.5-5.23Z"/>
  <path class="st0" d="M73.27,17c-.23-.56-.28-1.12-.17-1.67.12-.56.41-1.09.87-1.59.45-.5.95-.82,1.49-.98.54-.16,1.1-.14,1.67.04.58.18,1.14.53,1.69,1.03.55.5.94,1.03,1.17,1.59.23.56.29,1.11.18,1.66s-.39,1.07-.85,1.57c-.46.5-.97.84-1.51,1-.54.16-1.11.16-1.68-.02-.57-.18-1.14-.52-1.69-1.03-.55-.51-.94-1.04-1.17-1.6ZM76.43,18.73c.57-.1,1.16-.48,1.75-1.13.58-.64.9-1.24.94-1.81s-.18-1.09-.68-1.55c-.5-.46-1.03-.64-1.6-.55s-1.15.46-1.73,1.09c-.6.65-.92,1.26-.97,1.84-.05.58.17,1.1.68,1.56.5.46,1.04.64,1.61.54Z"/>
  <path class="st0" d="M84.76,28.65c.05-.15.15-.27.3-.35.15-.08.31-.09.46-.04s.27.16.35.33c.08.17.1.33.06.48-.05.15-.15.27-.3.35s-.31.09-.46.04c-.15-.05-.27-.16-.35-.33-.08-.17-.1-.33-.06-.48Z"/>
  <path class="st0" d="M93.07,39.47l.34,2.63c.12.94.07,1.68-.16,2.23-.23.55-.69.87-1.4.96-.69.09-1.22-.1-1.58-.56-.37-.46-.61-1.17-.74-2.12l-.14-1.11-2.37.31-.2-1.52,6.25-.81ZM90.1,42.54c.06.48.21.82.43,1.03.23.21.6.28,1.13.21.52-.07.86-.23,1.03-.49.17-.26.23-.63.16-1.11l-.15-1.12-2.76.36.15,1.12Z"/>
  <path class="st0" d="M87.83,48.44c.29-.53.69-.93,1.19-1.19.5-.26,1.1-.37,1.78-.33.67.04,1.24.22,1.7.54.46.32.8.76,1.03,1.32.22.56.31,1.21.27,1.96-.04.74-.21,1.38-.49,1.91-.29.53-.68.93-1.17,1.19-.5.26-1.08.37-1.75.34-.68-.04-1.26-.22-1.73-.54-.47-.32-.82-.76-1.05-1.31-.23-.56-.32-1.21-.27-1.96.04-.75.21-1.39.5-1.92ZM88.49,51.98c.44.38,1.1.6,1.98.65.86.05,1.53-.09,2-.41.47-.33.73-.83.77-1.51s-.16-1.21-.59-1.59-1.08-.6-1.94-.65c-.88-.05-1.56.09-2.04.41-.48.33-.74.83-.78,1.51-.04.68.16,1.2.6,1.58Z"/>
  <path class="st0" d="M85.94,60.97c-.24.05-.37.13-.39.22l-.12-.03.37-1.45c.14-.08.32-.14.52-.19.2-.04.45-.08.75-.11.42-.05.75-.11,1-.18.25-.07.44-.2.57-.38l.03-.13.33-1.29-2.47-.63.38-1.48,6.11,1.56-.71,2.76c-.23.91-.55,1.58-.95,2.01-.4.43-.93.56-1.59.39-.89-.23-1.33-.85-1.32-1.87-.17.17-.38.3-.62.4-.24.1-.53.17-.89.22-.44.06-.78.12-1.02.17ZM89.55,57.57l-.33,1.3c-.11.44-.11.81,0,1.09.12.29.43.49.93.62.49.12.85.09,1.09-.11.24-.2.42-.52.53-.96l.33-1.3-2.55-.65Z"/>
  <path class="st0" d="M89.45,66.29l1.08-2.38.51.23-2.79,6.14-.51-.23,1.08-2.38-5.23-2.37.63-1.38,5.23,2.37Z"/>
  <path class="st0" d="M87.18,72.04l-3.2,4.68-.46-.31,2.33-3.42-1.72-1.18-2,2.93-.46-.32,2-2.93-2.56-1.75.86-1.26,5.2,3.55Z"/>
  <path class="st0" d="M77.35,75.18c.57-.2,1.13-.23,1.68-.09.55.14,1.07.45,1.55.94.47.48.78.99.91,1.53s.1,1.1-.11,1.67c-.21.57-.58,1.11-1.11,1.64-.53.53-1.07.89-1.64,1.09-.57.21-1.12.24-1.67.11-.55-.13-1.06-.44-1.53-.92-.48-.48-.79-1-.93-1.55-.14-.55-.11-1.11.09-1.68.2-.57.57-1.11,1.1-1.64s1.08-.9,1.65-1.1ZM75.48,78.26c.08.58.43,1.18,1.05,1.8.61.61,1.2.95,1.77,1.02.57.07,1.1-.13,1.58-.61.48-.48.69-1.01.62-1.58-.07-.57-.41-1.16-1.02-1.78-.62-.62-1.22-.97-1.8-1.05-.58-.08-1.11.13-1.59.61-.48.48-.68,1.01-.61,1.58Z"/>
  <path class="st0" d="M75.63,84.89l-1.26.86-3.25-4.74-3.19,2.19-.32-.46,4.46-3.05,3.56,5.2Z"/>
  <path class="st0" d="M69.2,88.96l-1.36.7-2.86-5.61,1.36-.7,2.86,5.61Z"/>
  <path class="st0" d="M61.96,85.72c.6.07,1.11.3,1.54.67.43.37.75.88.96,1.53.21.64.25,1.23.13,1.78-.13.55-.41,1.03-.85,1.44-.44.41-1.01.74-1.73.97-.71.23-1.36.31-1.96.24-.6-.07-1.11-.29-1.54-.66s-.74-.87-.95-1.5c-.21-.65-.26-1.25-.14-1.81s.4-1.04.84-1.46c.44-.42,1.01-.74,1.72-.97.71-.23,1.37-.32,1.97-.24ZM58.91,87.63c-.19.55-.15,1.24.13,2.08.27.82.64,1.39,1.12,1.71.48.32,1.04.37,1.68.16.64-.21,1.07-.59,1.26-1.13.2-.54.16-1.22-.11-2.04-.28-.84-.65-1.42-1.13-1.75-.48-.33-1.05-.39-1.7-.17-.64.21-1.06.59-1.25,1.14Z"/>
  <path class="st0" d="M46.2,90.03c.11.12.16.26.16.44,0,.17-.07.31-.19.42-.12.11-.28.15-.46.15-.19,0-.34-.07-.45-.19s-.16-.26-.16-.43c0-.18.07-.31.19-.42.12-.11.28-.15.46-.15.19,0,.34.07.45.19Z"/>
  <path class="st0" d="M32.68,91.99l-2.46-.98c-.88-.35-1.5-.76-1.87-1.23-.37-.47-.42-1.03-.16-1.69.26-.65.68-1.02,1.26-1.11s1.32.04,2.21.39l1.04.41.89-2.22,1.42.57-2.34,5.85ZM31.45,87.91c-.45-.18-.81-.22-1.11-.12-.29.1-.54.39-.73.88-.19.49-.22.86-.08,1.14.14.28.44.5.89.68l1.05.42,1.03-2.58-1.05-.42Z"/>
  <path class="st0" d="M27.4,83.05c.32.51.47,1.05.45,1.62-.02.57-.21,1.14-.58,1.72-.36.57-.8.97-1.3,1.22-.5.25-1.05.33-1.65.25-.6-.08-1.21-.32-1.84-.72-.63-.4-1.1-.86-1.42-1.37-.32-.51-.48-1.04-.46-1.61.01-.56.2-1.12.56-1.69.37-.58.81-.99,1.32-1.25.51-.25,1.06-.34,1.66-.27.6.08,1.21.32,1.84.72.63.4,1.11.86,1.43,1.37ZM23.99,81.89c-.55.2-1.06.67-1.53,1.41-.47.73-.67,1.38-.62,1.95.05.57.37,1.04.94,1.41.57.37,1.13.45,1.67.27s1.05-.65,1.52-1.38c.48-.74.69-1.4.64-1.98-.05-.58-.36-1.06-.94-1.42-.57-.37-1.13-.45-1.68-.25Z"/>
  <path class="st0" d="M17.43,75.28c.07-.24.07-.39,0-.45l.09-.09,1.08,1.03c0,.17-.03.35-.09.55s-.15.44-.27.71c-.16.39-.28.71-.33.96-.06.25-.04.48.05.69l.1.09.96.92,1.76-1.84,1.1,1.05-4.35,4.56-2.06-1.97c-.68-.65-1.11-1.25-1.29-1.81-.18-.56-.03-1.08.44-1.57.63-.66,1.39-.74,2.27-.23-.06-.23-.07-.48-.04-.73.03-.26.11-.55.24-.88.16-.41.28-.74.35-.97ZM18.63,80.09l-.97-.93c-.33-.31-.65-.49-.96-.53-.31-.04-.64.13-1,.5-.35.37-.5.7-.44,1,.05.3.25.61.58.93l.97.93,1.82-1.91Z"/>
  <path class="st0" d="M11.07,75.74l1.55,2.1-.45.33-4-5.43.45-.33,1.55,2.1,4.62-3.4.9,1.22-4.62,3.4Z"/>
  <path class="st0" d="M7.16,70.96l-2.53-5.07.5-.25,1.85,3.7,1.87-.93-1.58-3.17.5-.25,1.58,3.17,2.77-1.38.68,1.37-5.64,2.81Z"/>
  <path class="st0" d="M9.21,60.84c-.1.6-.35,1.1-.74,1.51-.39.41-.92.71-1.58.9-.65.18-1.24.2-1.78.05-.54-.15-1.01-.46-1.4-.91-.39-.46-.69-1.05-.89-1.77-.2-.72-.25-1.37-.16-1.97.1-.59.34-1.1.72-1.51.38-.41.9-.71,1.55-.89.66-.19,1.26-.2,1.81-.06.55.15,1.02.45,1.42.9.4.45.69,1.04.9,1.76.2.72.25,1.38.15,1.98ZM7.44,57.71c-.54-.22-1.24-.2-2.09.03-.83.23-1.42.58-1.76,1.05-.34.46-.42,1.02-.23,1.67.18.65.54,1.09,1.07,1.31.53.22,1.21.21,2.05-.02.85-.24,1.45-.59,1.8-1.06.35-.47.43-1.03.25-1.69-.18-.65-.55-1.09-1.09-1.3Z"/>
  <path class="st0" d="M1.58,54.59l-.13-1.52,5.72-.51-.34-3.85.56-.05.48,5.38-6.28.55Z"/>
  <path class="st0" d="M1.19,46.99l.06-1.53,6.29.25-.06,1.53-6.29-.25Z"/>
  <path class="st0" d="M7.56,42.24c-.36.49-.8.83-1.34,1.02-.54.19-1.14.22-1.81.09-.66-.13-1.2-.38-1.61-.76-.42-.38-.7-.86-.84-1.44-.15-.58-.15-1.24,0-1.98.14-.73.39-1.34.74-1.83.35-.49.79-.83,1.32-1.02.53-.19,1.12-.23,1.78-.1.67.13,1.22.38,1.64.76.43.38.71.86.86,1.44.15.58.15,1.24.01,1.98-.14.74-.39,1.35-.75,1.84ZM7.38,38.65c-.39-.44-1.01-.74-1.88-.91-.85-.17-1.53-.12-2.04.15s-.83.72-.96,1.39c-.13.67,0,1.22.37,1.65.38.44.99.74,1.84.9.87.17,1.56.12,2.08-.14.52-.26.85-.73.98-1.4.13-.67,0-1.22-.39-1.65Z"/>
  <path class="st0" d="M11.48,26.39c-.16.04-.31.02-.46-.07-.15-.09-.24-.22-.27-.37-.03-.16,0-.32.1-.47.1-.16.22-.26.38-.3.16-.04.31-.02.46.07.15.09.24.22.27.37.03.16,0,.32-.1.47-.1.16-.22.26-.38.3Z"/>
</svg>